<svg width="1223" height="189" viewBox="0 0 1223 189" fill="none" xmlns="http://www.w3.org/2000/svg">
<path d="M0.0453126 141V139L5.04531 137.2C7.71198 136.133 9.77865 134.867 11.2453 133.4C12.712 131.8 13.912 129.6 14.8453 126.8L56.0453 8.59999H73.0453L113.645 127.6C114.712 130.533 115.912 132.8 117.245 134.4C118.579 135.867 120.645 137.133 123.445 138.2L125.845 139V141H75.0453V139L78.0453 138C80.8453 136.933 82.512 135.467 83.0453 133.6C83.712 131.6 83.6453 129.267 82.8453 126.6L73.4453 97.8H29.0453L19.4453 126C18.512 128.933 18.1786 131.267 18.4453 133C18.8453 134.733 20.4453 136.133 23.2453 137.2L27.6453 139V141H0.0453126ZM30.4453 93.8H72.2453L52.0453 31.6L30.4453 93.8ZM132.523 141V139L135.523 138.2C138.19 137.4 139.99 136.2 140.923 134.6C141.99 133 142.523 130.933 142.523 128.4V65.8C142.523 62.8667 141.99 60.7333 140.923 59.4C139.99 57.9333 138.19 56.9333 135.523 56.4L132.523 55.6V53.6L166.923 42L168.923 44L170.723 61.2V62.8C172.59 59.0667 174.99 55.6667 177.923 52.6C180.99 49.4 184.323 46.8 187.923 44.8C191.657 42.8 195.323 41.8 198.923 41.8C203.99 41.8 207.857 43.2 210.523 46C213.19 48.8 214.523 52.3333 214.523 56.6C214.523 61.1333 213.19 64.6667 210.523 67.2C207.99 69.6 204.923 70.8 201.323 70.8C195.723 70.8 190.79 68 186.523 62.4L186.123 62C184.79 60.1333 183.257 59.1333 181.523 59C179.79 58.7333 178.19 59.5333 176.723 61.4C175.39 62.6 174.257 64.0667 173.323 65.8C172.523 67.4 171.723 69.2667 170.923 71.4V127.2C170.923 132.533 173.257 135.867 177.923 137.2L184.323 139V141H132.523ZM257.005 144C251.805 144 247.005 143 242.605 141C238.338 139 234.938 135.8 232.405 131.4C230.005 126.867 228.871 120.933 229.005 113.6L229.605 62.2C229.605 59.1333 229.071 56.9333 228.005 55.6C226.938 54.2667 225.271 53.3333 223.005 52.8L220.605 52V50L256.405 43L258.405 45L257.405 73.4V121.6C257.405 125.867 258.605 129 261.005 131C263.538 133 266.671 134 270.405 134C274.138 134 277.471 133.467 280.405 132.4C283.338 131.333 286.271 129.733 289.205 127.6L290.005 62.4C290.005 59.3333 289.538 57.2 288.605 56C287.671 54.6667 285.938 53.7333 283.405 53.2L281.405 52.6V50.6L316.405 43L318.405 45L317.805 73.4V127.6C317.805 130.533 318.205 132.8 319.005 134.4C319.805 136 321.538 137.333 324.205 138.4L326.205 139V141L291.205 143L289.405 131.2C285.005 134.8 280.205 137.867 275.005 140.4C269.938 142.8 263.938 144 257.005 144ZM334.281 141V139L337.081 138.2C341.748 136.867 344.081 133.6 344.081 128.4V65.8C344.081 62.8667 343.615 60.7333 342.681 59.4C341.748 57.9333 339.948 56.9333 337.281 56.4L334.281 55.6V53.6L368.481 42L370.481 44L372.081 56C376.748 51.8667 382.015 48.4667 387.881 45.8C393.748 43.1333 399.548 41.8 405.281 41.8C414.081 41.8 420.815 44.2 425.481 49C430.281 53.8 432.681 61.1333 432.681 71V128.6C432.681 133.8 435.215 137.067 440.281 138.4L442.081 139V141H394.881V139L397.481 138.2C402.148 136.733 404.481 133.467 404.481 128.4V64.6C404.481 56.0667 400.215 51.8 391.681 51.8C385.815 51.8 379.415 54.7333 372.481 60.6V128.6C372.481 133.8 374.815 137.067 379.481 138.4L381.281 139V141H334.281ZM486.93 144C478.396 144 471.73 141.867 466.93 137.6C462.263 133.333 459.93 126.533 459.93 117.2V48.8H446.13V46.8L450.93 46C455.063 45.0667 458.596 43.7333 461.53 42C464.596 40.2667 467.596 37.9333 470.53 35L486.93 16.8H488.93L488.33 44.8H510.73V48.8H488.13V120.8C488.13 125.467 489.13 129 491.13 131.4C493.263 133.8 495.93 135 499.13 135C501.93 135 504.396 134.333 506.53 133C508.663 131.533 510.796 129.6 512.93 127.2L514.93 129.2C512.263 133.733 508.596 137.333 503.93 140C499.263 142.667 493.596 144 486.93 144ZM521.795 141V139L524.195 138.2C528.995 136.6 531.395 133.267 531.395 128.2V21.4C531.395 18.6 530.929 16.5333 529.995 15.2C529.062 13.8667 527.262 12.8667 524.595 12.2L521.595 11.4V9.39999L556.795 0.799993L559.995 2.59999L559.195 30.8V55.8C563.862 51.9333 568.862 48.6667 574.195 46C579.662 43.2 585.662 41.8 592.195 41.8C600.862 41.8 607.729 44.2667 612.795 49.2C617.995 54.1333 620.595 61.7333 620.595 72V128.4C620.595 131.067 621.129 133.2 622.195 134.8C623.262 136.4 625.129 137.6 627.795 138.4L629.395 139V141H582.595V139L584.995 138.4C589.795 136.8 592.195 133.4 592.195 128.2V65.4C592.195 60.0667 591.262 56.4 589.395 54.4C587.662 52.4 584.529 51.4 579.995 51.4C577.062 51.4 573.862 52 570.395 53.2C566.929 54.2667 563.395 56.2 559.795 59V128.6C559.795 133.8 562.195 137.133 566.995 138.6L568.595 139V141H521.795ZM665.239 144C657.506 144 650.972 141.8 645.639 137.4C640.439 133 637.839 126.667 637.839 118.4C637.839 112.133 641.039 106.4 647.439 101.2C653.839 95.8667 663.906 91.8667 677.639 89.2C679.772 88.8 682.172 88.4 684.839 88C687.506 87.4667 690.306 86.9333 693.239 86.4V70.6C693.239 61.5333 692.106 55.2 689.839 51.6C687.706 47.8667 684.306 46 679.639 46C676.439 46 673.906 47.0667 672.039 49.2C670.172 51.2 668.972 54.7333 668.439 59.8L668.039 62C667.772 67.7333 666.372 71.9333 663.839 74.6C661.306 77.2667 658.172 78.6 654.439 78.6C650.972 78.6 648.106 77.5333 645.839 75.4C643.572 73.2667 642.439 70.4 642.439 66.8C642.439 61.3333 644.306 56.7333 648.039 53C651.906 49.2667 656.972 46.4667 663.239 44.6C669.506 42.7333 676.306 41.8 683.639 41.8C695.506 41.8 704.639 44.7333 711.039 50.6C717.572 56.3333 720.839 65.7333 720.839 78.8V123C720.839 129 723.639 132 729.239 132H733.639L735.439 133.6C732.906 136.8 730.106 139.267 727.039 141C724.106 142.733 719.906 143.6 714.439 143.6C708.572 143.6 703.906 142.267 700.439 139.6C697.106 136.8 694.906 133.133 693.839 128.6C689.839 132.867 685.706 136.533 681.439 139.6C677.306 142.533 671.906 144 665.239 144ZM677.439 131.8C680.106 131.8 682.572 131.2 684.839 130C687.239 128.667 690.039 126.667 693.239 124V90.4C691.906 90.6667 690.572 90.9333 689.239 91.2C687.906 91.4667 686.372 91.7333 684.639 92C678.506 93.6 673.572 96.3333 669.839 100.2C666.239 103.933 664.439 109 664.439 115.4C664.439 120.867 665.706 125 668.239 127.8C670.772 130.467 673.839 131.8 677.439 131.8ZM780.448 141.6L745.048 56.6C743.182 52.0667 739.982 49.0667 735.448 47.6L732.648 46.8V44.8H784.448V46.8L780.848 47.6C775.648 48.9333 774.048 52.4 776.048 58L797.048 113.8L816.648 58.4C817.715 55.7333 817.982 53.5333 817.448 51.8C816.915 50.0667 815.315 48.8 812.648 48L807.648 46.8V44.8H836.648V46.8L830.848 48.2C828.315 48.8667 826.315 49.8667 824.848 51.2C823.515 52.5333 822.382 54.5333 821.448 57.2L792.048 141.6H780.448ZM866.216 144C858.482 144 851.949 141.8 846.616 137.4C841.416 133 838.816 126.667 838.816 118.4C838.816 112.133 842.016 106.4 848.416 101.2C854.816 95.8667 864.882 91.8667 878.616 89.2C880.749 88.8 883.149 88.4 885.816 88C888.482 87.4667 891.282 86.9333 894.216 86.4V70.6C894.216 61.5333 893.082 55.2 890.816 51.6C888.682 47.8667 885.282 46 880.616 46C877.416 46 874.882 47.0667 873.016 49.2C871.149 51.2 869.949 54.7333 869.416 59.8L869.016 62C868.749 67.7333 867.349 71.9333 864.816 74.6C862.282 77.2667 859.149 78.6 855.416 78.6C851.949 78.6 849.082 77.5333 846.816 75.4C844.549 73.2667 843.416 70.4 843.416 66.8C843.416 61.3333 845.282 56.7333 849.016 53C852.882 49.2667 857.949 46.4667 864.216 44.6C870.482 42.7333 877.282 41.8 884.616 41.8C896.482 41.8 905.616 44.7333 912.016 50.6C918.549 56.3333 921.816 65.7333 921.816 78.8V123C921.816 129 924.616 132 930.216 132H934.616L936.416 133.6C933.882 136.8 931.082 139.267 928.016 141C925.082 142.733 920.882 143.6 915.416 143.6C909.549 143.6 904.882 142.267 901.416 139.6C898.082 136.8 895.882 133.133 894.816 128.6C890.816 132.867 886.682 136.533 882.416 139.6C878.282 142.533 872.882 144 866.216 144ZM878.416 131.8C881.082 131.8 883.549 131.2 885.816 130C888.216 128.667 891.016 126.667 894.216 124V90.4C892.882 90.6667 891.549 90.9333 890.216 91.2C888.882 91.4667 887.349 91.7333 885.616 92C879.482 93.6 874.549 96.3333 870.816 100.2C867.216 103.933 865.416 109 865.416 115.4C865.416 120.867 866.682 125 869.216 127.8C871.749 130.467 874.816 131.8 878.416 131.8ZM940.141 141V139L943.141 138.2C945.807 137.4 947.607 136.2 948.541 134.6C949.607 133 950.141 130.933 950.141 128.4V65.8C950.141 62.8667 949.607 60.7333 948.541 59.4C947.607 57.9333 945.807 56.9333 943.141 56.4L940.141 55.6V53.6L974.541 42L976.541 44L978.341 61.2V62.8C980.207 59.0667 982.607 55.6667 985.541 52.6C988.607 49.4 991.941 46.8 995.541 44.8C999.274 42.8 1002.94 41.8 1006.54 41.8C1011.61 41.8 1015.47 43.2 1018.14 46C1020.81 48.8 1022.14 52.3333 1022.14 56.6C1022.14 61.1333 1020.81 64.6667 1018.14 67.2C1015.61 69.6 1012.54 70.8 1008.94 70.8C1003.34 70.8 998.407 68 994.141 62.4L993.741 62C992.407 60.1333 990.874 59.1333 989.141 59C987.407 58.7333 985.807 59.5333 984.341 61.4C983.007 62.6 981.874 64.0667 980.941 65.8C980.141 67.4 979.341 69.2667 978.541 71.4V127.2C978.541 132.533 980.874 135.867 985.541 137.2L991.941 139V141H940.141ZM1053.33 144C1045.59 144 1039.06 141.8 1033.73 137.4C1028.53 133 1025.93 126.667 1025.93 118.4C1025.93 112.133 1029.13 106.4 1035.53 101.2C1041.93 95.8667 1051.99 91.8667 1065.73 89.2C1067.86 88.8 1070.26 88.4 1072.92 88C1075.59 87.4667 1078.39 86.9333 1081.33 86.4V70.6C1081.33 61.5333 1080.19 55.2 1077.93 51.6C1075.79 47.8667 1072.39 46 1067.73 46C1064.53 46 1061.99 47.0667 1060.13 49.2C1058.26 51.2 1057.06 54.7333 1056.53 59.8L1056.13 62C1055.86 67.7333 1054.46 71.9333 1051.93 74.6C1049.39 77.2667 1046.26 78.6 1042.53 78.6C1039.06 78.6 1036.19 77.5333 1033.93 75.4C1031.66 73.2667 1030.53 70.4 1030.53 66.8C1030.53 61.3333 1032.39 56.7333 1036.13 53C1039.99 49.2667 1045.06 46.4667 1051.33 44.6C1057.59 42.7333 1064.39 41.8 1071.73 41.8C1083.59 41.8 1092.73 44.7333 1099.13 50.6C1105.66 56.3333 1108.93 65.7333 1108.93 78.8V123C1108.93 129 1111.73 132 1117.33 132H1121.73L1123.53 133.6C1120.99 136.8 1118.19 139.267 1115.13 141C1112.19 142.733 1107.99 143.6 1102.53 143.6C1096.66 143.6 1091.99 142.267 1088.53 139.6C1085.19 136.8 1082.99 133.133 1081.93 128.6C1077.93 132.867 1073.79 136.533 1069.53 139.6C1065.39 142.533 1059.99 144 1053.33 144ZM1065.53 131.8C1068.19 131.8 1070.66 131.2 1072.92 130C1075.33 128.667 1078.13 126.667 1081.33 124V90.4C1079.99 90.6667 1078.66 90.9333 1077.33 91.2C1075.99 91.4667 1074.46 91.7333 1072.73 92C1066.59 93.6 1061.66 96.3333 1057.93 100.2C1054.33 103.933 1052.53 109 1052.53 115.4C1052.53 120.867 1053.79 125 1056.33 127.8C1058.86 130.467 1061.93 131.8 1065.53 131.8ZM1153.24 31.4C1148.71 31.4 1144.91 30 1141.84 27.2C1138.77 24.2667 1137.24 20.6 1137.24 16.2C1137.24 11.6667 1138.77 7.99999 1141.84 5.2C1144.91 2.39999 1148.71 0.99999 1153.24 0.99999C1157.77 0.99999 1161.57 2.39999 1164.64 5.2C1167.84 7.99999 1169.44 11.6667 1169.44 16.2C1169.44 20.6 1167.84 24.2667 1164.64 27.2C1161.57 30 1157.77 31.4 1153.24 31.4ZM1123.64 189C1116.04 189 1110.57 187.667 1107.24 185C1103.91 182.467 1102.24 179.133 1102.24 175C1102.24 171.267 1103.57 168.267 1106.24 166C1108.91 163.733 1112.04 162.6 1115.64 162.6C1119.24 162.6 1122.51 163.467 1125.44 165.2C1128.37 167.067 1130.64 169.933 1132.24 173.8L1134.24 178.2C1135.17 179.667 1136.24 180.133 1137.44 179.6C1138.77 179.2 1139.44 177.133 1139.44 173.4V65.8C1139.44 62.7333 1138.71 60.5333 1137.24 59.2C1135.91 57.7333 1133.91 56.7333 1131.24 56.2L1128.24 55.8V53.8L1165.64 42L1168.04 44L1167.44 72.4V128C1167.44 136.667 1167.04 143.933 1166.24 149.8C1165.57 155.667 1164.31 160.6 1162.44 164.6C1160.71 168.733 1158.17 172.533 1154.84 176C1150.17 180.667 1145.11 184 1139.64 186C1134.17 188 1128.84 189 1123.64 189ZM1205.59 144C1200.79 144 1196.73 142.333 1193.39 139C1190.06 135.667 1188.39 131.667 1188.39 127C1188.39 122.333 1190.06 118.267 1193.39 114.8C1196.73 111.333 1200.79 109.6 1205.59 109.6C1210.39 109.6 1214.46 111.333 1217.79 114.8C1221.13 118.267 1222.79 122.333 1222.79 127C1222.79 131.667 1221.13 135.667 1217.79 139C1214.46 142.333 1210.39 144 1205.59 144Z" fill="white"/>
</svg>
