<svg width="345" height="56" viewBox="0 0 345 56" fill="none" xmlns="http://www.w3.org/2000/svg">
<path d="M15.4823 2.4H23.0123L38.2523 42H30.2723L27.1823 33.45H11.3423L8.19234 42H0.182344L15.4823 2.4ZM13.8023 26.82H24.7223L19.2923 11.46H19.2023L13.8023 26.82ZM48.9286 42H41.3086V17.37H48.9286V21.36H48.7786C48.9186 20.88 49.2986 20.27 49.9186 19.53C50.5586 18.79 51.4386 18.13 52.5586 17.55C53.6786 16.95 55.0286 16.65 56.6086 16.65C57.7486 16.65 58.7786 16.82 59.6986 17.16C60.6386 17.48 61.3086 17.8 61.7086 18.12L58.7086 24.36C58.4486 24.04 57.9586 23.71 57.2386 23.37C56.5386 23.03 55.6586 22.86 54.5986 22.86C53.3386 22.86 52.2886 23.21 51.4486 23.91C50.6086 24.59 49.9786 25.43 49.5586 26.43C49.1386 27.41 48.9286 28.33 48.9286 29.19V42ZM71.753 29.16C71.753 31.36 72.193 33.12 73.073 34.44C73.953 35.74 75.373 36.39 77.333 36.39C79.313 36.39 80.743 35.74 81.623 34.44C82.503 33.12 82.943 31.36 82.943 29.16V17.37H90.443V30.03C90.443 32.57 89.933 34.8 88.913 36.72C87.893 38.62 86.403 40.1 84.443 41.16C82.503 42.2 80.133 42.72 77.333 42.72C74.553 42.72 72.183 42.2 70.223 41.16C68.283 40.1 66.803 38.62 65.783 36.72C64.763 34.8 64.253 32.57 64.253 30.03V17.37H71.753V29.16ZM112.324 16.65C114.004 16.65 115.644 17 117.244 17.7C118.844 18.38 120.154 19.47 121.174 20.97C122.214 22.47 122.734 24.43 122.734 26.85V42H115.084V28.17C115.084 26.15 114.604 24.65 113.644 23.67C112.704 22.69 111.464 22.2 109.924 22.2C108.924 22.2 107.964 22.48 107.044 23.04C106.144 23.58 105.404 24.34 104.824 25.32C104.264 26.28 103.984 27.38 103.984 28.62V42H96.3638V17.37H103.984V21.3C104.204 20.62 104.704 19.92 105.484 19.2C106.264 18.48 107.254 17.88 108.454 17.4C109.654 16.9 110.944 16.65 112.324 16.65ZM126.555 17.37H130.995V7.26H138.555V17.37H144.375V23.7H138.555V32.61C138.555 33.79 138.745 34.71 139.125 35.37C139.505 36.01 140.105 36.33 140.925 36.33C141.545 36.33 142.055 36.21 142.455 35.97C142.855 35.71 143.095 35.53 143.175 35.43L145.875 40.89C145.755 41.01 145.365 41.22 144.705 41.52C144.065 41.82 143.235 42.09 142.215 42.33C141.215 42.59 140.085 42.72 138.825 42.72C136.565 42.72 134.695 42.07 133.215 40.77C131.735 39.45 130.995 37.41 130.995 34.65V23.7H126.555V17.37ZM165.62 16.65C167.3 16.65 168.94 17 170.54 17.7C172.14 18.38 173.45 19.47 174.47 20.97C175.51 22.47 176.03 24.43 176.03 26.85V42H168.38V28.17C168.38 26.15 167.92 24.65 167 23.67C166.1 22.69 164.89 22.2 163.37 22.2C162.35 22.2 161.37 22.48 160.43 23.04C159.51 23.58 158.75 24.34 158.15 25.32C157.57 26.28 157.28 27.38 157.28 28.62V42H149.63V0.719999H157.28V21.3C157.48 20.62 157.97 19.92 158.75 19.2C159.53 18.48 160.52 17.88 161.72 17.4C162.92 16.9 164.22 16.65 165.62 16.65ZM201.413 42V37.71C201.233 38.15 200.773 38.77 200.033 39.57C199.293 40.37 198.293 41.1 197.033 41.76C195.793 42.4 194.333 42.72 192.653 42.72C190.293 42.72 188.203 42.16 186.383 41.04C184.563 39.9 183.133 38.35 182.093 36.39C181.073 34.41 180.563 32.18 180.563 29.7C180.563 27.22 181.073 25 182.093 23.04C183.133 21.06 184.563 19.5 186.383 18.36C188.203 17.22 190.293 16.65 192.653 16.65C194.293 16.65 195.713 16.93 196.913 17.49C198.133 18.03 199.113 18.67 199.853 19.41C200.613 20.13 201.103 20.78 201.323 21.36V17.37H208.883V42H201.413ZM188.033 29.7C188.033 31.08 188.343 32.3 188.963 33.36C189.583 34.4 190.403 35.21 191.423 35.79C192.443 36.37 193.553 36.66 194.753 36.66C196.013 36.66 197.133 36.37 198.113 35.79C199.093 35.19 199.863 34.37 200.423 33.33C201.003 32.27 201.293 31.06 201.293 29.7C201.293 28.34 201.003 27.14 200.423 26.1C199.863 25.04 199.093 24.21 198.113 23.61C197.133 23.01 196.013 22.71 194.753 22.71C193.553 22.71 192.443 23.01 191.423 23.61C190.403 24.19 189.583 25.01 188.963 26.07C188.343 27.11 188.033 28.32 188.033 29.7ZM212.829 17.37H220.989L227.739 35.04L234.489 17.37H242.619L232.209 42H223.269L212.829 17.37ZM266.16 42V37.71C265.98 38.15 265.52 38.77 264.78 39.57C264.04 40.37 263.04 41.1 261.78 41.76C260.54 42.4 259.08 42.72 257.4 42.72C255.04 42.72 252.95 42.16 251.13 41.04C249.31 39.9 247.88 38.35 246.84 36.39C245.82 34.41 245.31 32.18 245.31 29.7C245.31 27.22 245.82 25 246.84 23.04C247.88 21.06 249.31 19.5 251.13 18.36C252.95 17.22 255.04 16.65 257.4 16.65C259.04 16.65 260.46 16.93 261.66 17.49C262.88 18.03 263.86 18.67 264.6 19.41C265.36 20.13 265.85 20.78 266.07 21.36V17.37H273.63V42H266.16ZM252.78 29.7C252.78 31.08 253.09 32.3 253.71 33.36C254.33 34.4 255.15 35.21 256.17 35.79C257.19 36.37 258.3 36.66 259.5 36.66C260.76 36.66 261.88 36.37 262.86 35.79C263.84 35.19 264.61 34.37 265.17 33.33C265.75 32.27 266.04 31.06 266.04 29.7C266.04 28.34 265.75 27.14 265.17 26.1C264.61 25.04 263.84 24.21 262.86 23.61C261.88 23.01 260.76 22.71 259.5 22.71C258.3 22.71 257.19 23.01 256.17 23.61C255.15 24.19 254.33 25.01 253.71 26.07C253.09 27.11 252.78 28.32 252.78 29.7ZM286.995 42H279.375V17.37H286.995V21.36H286.845C286.985 20.88 287.365 20.27 287.985 19.53C288.625 18.79 289.505 18.13 290.625 17.55C291.745 16.95 293.095 16.65 294.675 16.65C295.815 16.65 296.845 16.82 297.765 17.16C298.705 17.48 299.375 17.8 299.775 18.12L296.775 24.36C296.515 24.04 296.025 23.71 295.305 23.37C294.605 23.03 293.725 22.86 292.665 22.86C291.405 22.86 290.355 23.21 289.515 23.91C288.675 24.59 288.045 25.43 287.625 26.43C287.205 27.41 286.995 28.33 286.995 29.19V42ZM321.413 42V37.71C321.233 38.15 320.773 38.77 320.033 39.57C319.293 40.37 318.293 41.1 317.033 41.76C315.793 42.4 314.333 42.72 312.653 42.72C310.293 42.72 308.203 42.16 306.383 41.04C304.563 39.9 303.133 38.35 302.093 36.39C301.073 34.41 300.563 32.18 300.563 29.7C300.563 27.22 301.073 25 302.093 23.04C303.133 21.06 304.563 19.5 306.383 18.36C308.203 17.22 310.293 16.65 312.653 16.65C314.293 16.65 315.713 16.93 316.913 17.49C318.133 18.03 319.113 18.67 319.853 19.41C320.613 20.13 321.103 20.78 321.323 21.36V17.37H328.883V42H321.413ZM308.033 29.7C308.033 31.08 308.343 32.3 308.963 33.36C309.583 34.4 310.403 35.21 311.423 35.79C312.443 36.37 313.553 36.66 314.753 36.66C316.013 36.66 317.133 36.37 318.113 35.79C319.093 35.19 319.863 34.37 320.423 33.33C321.003 32.27 321.293 31.06 321.293 29.7C321.293 28.34 321.003 27.14 320.423 26.1C319.863 25.04 319.093 24.21 318.113 23.61C317.133 23.01 316.013 22.71 314.753 22.71C313.553 22.71 312.443 23.01 311.423 23.61C310.403 24.19 309.583 25.01 308.963 26.07C308.343 27.11 308.033 28.32 308.033 29.7ZM334.899 55.2C333.279 55.2 331.939 55.03 330.879 54.69C329.799 54.37 328.999 54.04 328.479 53.7L330.969 48C331.269 48.24 331.599 48.42 331.959 48.54C332.299 48.68 332.739 48.75 333.279 48.75C333.959 48.75 334.499 48.55 334.899 48.15C335.319 47.77 335.619 47.21 335.799 46.47C335.979 45.73 336.069 44.84 336.069 43.8V17.37H343.689V45.18C343.689 47.1 343.389 48.81 342.789 50.31C342.209 51.83 341.269 53.02 339.969 53.88C338.689 54.76 336.999 55.2 334.899 55.2ZM339.999 11.01C338.759 11.01 337.699 10.57 336.819 9.69C335.939 8.81 335.499 7.76 335.499 6.54C335.499 5.72 335.699 4.97 336.099 4.29C336.519 3.61 337.069 3.06 337.749 2.64C338.429 2.22 339.179 2.01 339.999 2.01C340.819 2.01 341.569 2.22 342.249 2.64C342.929 3.04 343.469 3.58 343.869 4.26C344.289 4.94 344.499 5.7 344.499 6.54C344.499 7.76 344.059 8.81 343.179 9.69C342.299 10.57 341.239 11.01 339.999 11.01Z" fill="white"/>
</svg>
